<svg width="120" height="120" viewBox="0 0 120 120" fill="none" xmlns="http://www.w3.org/2000/svg">
<path d="M64.9232 3.97502C63.9134 4.87502 56.0589 20.5031 56.0589 20.5031L50.2148 44.1375L72.9553 42.0469C72.9553 42.0469 91.8714 6.77814 92.2548 5.96252C92.9374 4.48127 93.3021 3.87189 90.6933 3.87189C88.0845 3.86252 65.8676 3.13127 64.9232 3.97502Z" fill="#543ACC"/>
<path d="M76.6955 40.5844C75.5641 39.975 42.2389 39.45 41.4534 40.5844C40.7428 41.6156 41.1448 47.025 41.416 47.6719C41.9022 48.7969 52.6647 53.7 52.6647 53.7L52.459 55.9312C52.459 55.9312 53.3379 56.1562 59.5934 56.1562C65.8489 56.1562 67.0832 55.8375 67.0832 55.8375L67.1019 53.8219C67.1019 53.8219 76.7891 49.0969 77.2753 48.4406C77.6867 47.8969 77.827 41.1937 76.6955 40.5844ZM66.7746 49.1344C66.7746 49.1344 67.0832 47.7562 66.438 47.4375C65.7928 47.1094 54.7218 47.2594 53.8429 47.3062C52.9639 47.3531 52.9639 48.9281 52.9639 48.9281L45.9884 45.3281L45.8575 43.9875L72.3195 44.175L72.226 45.4406L66.7746 49.1344Z" fill="#F79429"/>
<path d="M55.7315 48.6469C54.8526 48.6469 54.3477 49.5656 54.3477 51.15C54.3477 52.6312 54.8526 53.8781 55.9653 53.7844C56.8816 53.7094 57.1996 52.3031 57.1154 51.0562C57.0313 49.5656 56.8442 48.6469 55.7315 48.6469Z" fill="#FDFFFF"/>
<path d="M27.7266 86.3344C27.7266 108.797 48.0266 118.144 61.5007 117.741C77.2002 117.272 94.0872 105.328 92.694 83.8969C91.3849 63.7875 74.4979 54.5625 59.7428 54.6656C42.5939 54.7969 27.7266 66.7125 27.7266 86.3344Z" fill="#F79429"/>
<path d="M60.7909 114.347C60.5572 114.347 60.314 114.347 60.0803 114.338C53.0674 114.103 46.1386 111.141 41.0707 106.219C35.6474 100.95 32.6739 93.825 32.7113 86.1657C32.7954 67.4625 49.1028 58.7906 60.1644 58.7906H60.2579C75.2468 58.8563 87.5521 70.5375 87.8981 86.3719C88.0477 93.4219 85.8036 100.434 80.1559 106.003C74.8822 111.178 67.2521 114.347 60.7909 114.347ZM60.1457 61.9031C50.2248 61.9031 35.5538 70.0407 35.5164 86.1657C35.4884 98.2219 44.8015 110.616 60.314 111.141C66.2236 111.328 72.8905 109.134 77.7995 104.297C82.9049 99.2625 85.1958 92.7 85.0929 86.4188C84.8685 72.7969 73.7601 61.9594 60.2766 61.9031C60.2486 61.8844 60.1738 61.9031 60.1457 61.9031Z" fill="#D25116"/>
<path d="M54.6381 57.6282C53.9929 56.7375 47.382 56.9906 40.2663 63.1313C33.1973 69.2344 32.1407 75.9844 33.4124 76.3406C34.8617 76.7438 36.6289 70.2188 42.7348 64.7344C48.3451 59.7188 55.9191 59.4 54.6381 57.6282ZM83.0543 82.1625C80.8008 82.4813 83.1385 89.25 77.9115 96.825C73.3765 103.397 68.2337 105.778 68.8321 107.222C69.6363 109.153 77.8741 104.344 81.6891 96.5063C85.1395 89.4094 84.7281 81.9188 83.0543 82.1625Z" fill="#FEFFFA"/>
<path d="M24.1754 3.48752C23.5863 4.03127 46.1118 44.25 46.1118 44.25C46.1118 44.25 49.8894 44.7375 58.3235 44.8125C66.7577 44.8875 70.9374 44.325 70.9374 44.325C70.9374 44.325 53.4239 3.89065 52.3766 3.48752C51.8623 3.28127 44.9242 3.20627 38.1451 3.13127C31.3566 3.0469 24.7365 2.96252 24.1754 3.48752Z" fill="#6949FF"/>
<path d="M70.4014 78.4781C69.3167 69.0563 58.3766 68.2688 53.8416 71.8875C49.4281 75.4125 49.8489 80.325 52.9439 80.8969C55.3844 81.3469 56.0202 79.4063 56.7309 78.5156C58.3392 76.5188 60.9012 76.3313 62.575 77.9344C64.4731 79.7625 63.3043 84.1313 60.4524 84.3094C58.3298 84.4406 57.2545 84.3281 56.9833 84.6938C56.6 85.2094 56.6561 89.2688 57.0488 89.7188C57.4976 90.2344 59.2929 89.9156 60.8358 89.9719C62.9583 90.0563 65.2118 93.2063 63.7251 95.5688C62.1822 98.0156 58.0774 96.9188 56.6 95.4375C54.6457 93.4781 52.6915 94.6031 52.0369 95.3719C51.0084 96.5906 49.9143 99.3656 53.7107 102.066C57.4976 104.766 68.9894 105.281 71.3084 96.9188C73.3281 89.6156 68.6154 86.6156 68.6154 86.6156C68.6154 86.6156 71.0185 83.85 70.4014 78.4781Z" fill="white"/>
</svg>
