<svg width="141" height="140" viewBox="0 0 141 140" fill="none" xmlns="http://www.w3.org/2000/svg">
<path d="M76.0467 4.63749C74.8685 5.68749 65.7049 23.9203 65.7049 23.9203L58.8867 51.4937L85.4176 49.0547C85.4176 49.0547 107.487 7.9078 107.934 6.95624C108.73 5.22811 109.156 4.51718 106.112 4.51718C103.068 4.50624 77.1485 3.65311 76.0467 4.63749Z" fill="#543ACC"/>
<path d="M89.7808 47.3484C88.4608 46.6375 49.5809 46.025 48.6645 47.3484C47.8354 48.5516 47.9554 54.0531 48.3591 54.7641C48.7627 55.475 61.8318 61.5672 61.8318 61.5672L61.8209 63.7875C61.8209 63.7875 62.5409 65.5266 69.8281 65.5266C77.1154 65.5266 77.8681 64.05 77.8681 64.05L77.9335 61.8078C77.9335 61.8078 89.3771 56.0766 89.9771 55.5734C90.588 55.0594 91.1008 48.0594 89.7808 47.3484ZM77.8026 56.4594C77.8026 56.4594 77.7699 54.9281 77.0172 54.5453C76.2645 54.1625 64.1445 54.2281 63.119 54.2828C62.0936 54.3375 62.0936 56.175 62.0936 56.175L53.8027 52.1281V51.3187L84.6753 51.5375L84.7299 52.4562L77.8026 56.4594Z" fill="#FCC417"/>
<path d="M65.3216 55.9672C64.2961 55.9672 63.707 57.039 63.707 58.8875C63.707 60.6156 64.2961 62.0703 65.5943 61.9609C66.6634 61.8734 67.0343 60.2328 66.9361 58.7781C66.8379 57.05 66.6198 55.9672 65.3216 55.9672Z" fill="#FDFFFF"/>
<path d="M32.2891 99.225C32.2891 125.431 55.9181 137.102 71.6271 136.544C88.9507 135.92 109.7 122.38 108.445 97.3766C107.256 73.686 87.3798 62.4532 70.1653 62.5735C50.1581 62.7157 32.2891 76.3328 32.2891 99.225Z" fill="#FCC417"/>
<path d="M71.0709 131.983C70.7981 131.983 70.5145 131.983 70.2418 131.972C62.06 131.698 53.9764 128.242 48.0637 122.5C41.7364 116.353 38.2673 108.041 38.311 99.1047C38.4091 77.2844 57.4345 67.1672 70.34 67.1672H70.449C87.9363 67.2437 102.293 80.8719 102.696 99.3453C102.871 107.57 99.5108 116.2 92.9217 122.697C86.769 128.745 78.609 131.983 71.0709 131.983ZM70.3181 70.7984C58.7436 70.7984 41.6273 80.2922 41.5837 99.1047C41.5509 113.17 52.4164 127.63 70.5145 128.242C77.409 128.461 84.5108 125.814 90.249 120.159C96.2053 114.286 99.5544 106.717 99.4344 99.3891C99.1726 83.4969 86.2126 70.8531 70.4818 70.7875C70.4381 70.7875 70.3509 70.7984 70.3181 70.7984Z" fill="#FA912C"/>
<path d="M63.7525 66.2922C62.9998 65.2532 54.4689 65.45 46.4071 73.3469C38.6289 80.9703 37.7889 88.1563 39.2835 88.5719C40.9744 89.0422 43.0362 81.4297 50.1598 75.0313C56.7052 69.1688 65.2579 68.3594 63.7525 66.2922ZM96.7524 94.5875C94.1233 94.9594 96.8506 102.856 90.7524 111.694C85.4615 119.361 79.4615 122.139 80.1597 123.823C81.0979 126.077 90.7088 120.466 95.1597 111.322C99.196 103.042 98.716 94.3032 96.7524 94.5875Z" fill="#FEFFFA"/>
<path d="M61.6016 84.2406C61.0343 85.0828 61.547 92.4656 61.8852 92.7937C62.5398 93.45 67.5143 91.0984 67.5143 91.0984L67.3288 110.841C67.3288 110.841 63.6743 110.797 63.2925 110.939C62.5398 111.223 62.638 118.836 63.1943 119.208C63.7507 119.58 78.6634 119.777 79.2306 119.022C79.7979 118.267 79.6561 111.606 79.3943 111.3C78.9252 110.731 75.3579 110.961 75.3579 110.961C75.3579 110.961 75.6634 81.889 75.5652 80.9593C75.467 80.0297 74.4416 79.45 73.2197 79.7344C71.9979 80.0187 61.9616 83.6937 61.6016 84.2406Z" fill="white"/>
<path d="M28.5054 4.06878C27.8182 4.70315 54.0981 51.625 54.0981 51.625C54.0981 51.625 58.5054 52.1938 68.3453 52.2813C78.1853 52.3688 83.0616 51.7125 83.0616 51.7125C83.0616 51.7125 62.629 4.53909 61.4072 4.06878C60.8072 3.82815 52.7126 3.74065 44.8036 3.65315C36.8836 3.55472 29.16 3.45628 28.5054 4.06878Z" fill="#6949FF"/>
</svg>
