<svg width="28" height="28" viewBox="0 0 28 28" fill="none" xmlns="http://www.w3.org/2000/svg">
<rect width="28" height="28" rx="14" fill="#6949FF"/>
<path d="M19.0361 21.0112C18.9637 21.0891 18.8802 21.1604 18.7852 21.2233C17.5206 22.062 16.0488 22.5596 14.5141 22.6513C12.3985 22.7776 10.3101 22.1239 8.64389 20.8138C6.97769 19.5037 5.8493 17.6281 5.47224 15.542C5.09517 13.4558 5.49558 11.3037 6.59771 9.49295C7.69983 7.68218 9.42722 6.33831 11.453 5.71562C13.4788 5.09292 15.6626 5.2346 17.591 6.11384C19.5194 6.99308 21.0588 8.54889 21.9179 10.4869C22.5411 11.8928 22.7749 13.429 22.6107 14.9378C22.5072 15.8893 21.5135 16.395 20.6015 16.1044C19.6898 15.8139 19.2182 14.8278 19.1945 13.8712C19.1777 13.1942 19.0288 12.5214 18.7499 11.8921C18.2344 10.7293 17.3108 9.79584 16.1537 9.2683C14.9967 8.74076 13.6864 8.65575 12.4709 9.02937C11.2555 9.40298 10.219 10.2093 9.55775 11.2958C8.89647 12.3822 8.65622 13.6735 8.88246 14.9252C9.1087 16.1769 9.78573 17.3022 10.7855 18.0883C11.7852 18.8743 13.0382 19.2665 14.3076 19.1907C14.9875 19.1501 15.6468 18.9768 16.2507 18.6862L11.0275 13.4613C12.3809 12.1075 14.5751 12.1075 15.9285 13.4613L22.6673 20.2024C21.6855 21.1846 20.261 21.4542 19.0361 21.0112Z" fill="white"/>
</svg>
