<svg width="130" height="130" viewBox="0 0 130 130" fill="none" xmlns="http://www.w3.org/2000/svg">
<path d="M69.9868 4.30622C68.8928 5.28122 60.3838 22.2117 60.3838 22.2117L54.0527 47.8156L78.6883 45.5508C78.6883 45.5508 99.1807 7.34294 99.596 6.45935C100.335 4.85466 100.731 4.1945 97.9044 4.1945C95.0782 4.18435 71.0099 3.39216 69.9868 4.30622Z" fill="#543ACC"/>
<path d="M82.7398 43.9664C81.5141 43.3062 45.4118 42.7375 44.5609 43.9664C43.791 45.0836 44.2266 50.9437 44.5203 51.6445C45.0471 52.8633 56.7064 58.175 56.7064 58.175L56.4836 60.5922C56.4836 60.5922 57.4358 60.8359 64.2125 60.8359C70.9893 60.8359 72.3265 60.4906 72.3265 60.4906L72.3467 58.307C72.3467 58.307 82.8411 53.1883 83.3679 52.4773C83.8136 51.8883 83.9655 44.6266 82.7398 43.9664ZM71.9922 53.2289C71.9922 53.2289 72.3265 51.7359 71.6275 51.3906C70.9286 51.0352 58.935 51.1977 57.9828 51.2484C57.0306 51.2992 57.0306 53.0055 57.0306 53.0055L49.332 48.4047V47.6531L77.9991 47.8562L78.0498 48.7094L71.9922 53.2289Z" fill="#CECDD2"/>
<path d="M60.0285 51.9695C59.0763 51.9695 58.5293 52.9649 58.5293 54.6813C58.5293 56.286 59.0763 57.6367 60.2817 57.5352C61.2745 57.4539 61.6189 55.9305 61.5277 54.5797C61.4365 52.975 61.2339 51.9695 60.0285 51.9695Z" fill="#FDFFFF"/>
<path d="M29.3457 93.3258C29.3457 117.66 51.6818 127.989 66.2787 127.552C83.2866 127.045 101.236 114.105 100.072 90.8883C98.9674 68.8898 80.3591 59.1094 64.3743 59.2211C45.7964 59.3633 29.3457 72.0688 29.3457 93.3258Z" fill="#CECDD2"/>
<path d="M65.3672 123.023C65.114 123.023 64.8506 123.023 64.5974 123.013C57.0001 122.759 49.4939 119.549 44.0036 114.217C38.1284 108.509 34.9071 100.791 34.9476 92.493C35.0388 72.2313 52.7051 62.8367 64.6885 62.8367H64.7898C81.0278 62.9078 94.3585 75.5625 94.7333 92.7164C94.8954 100.354 91.7755 108.367 85.6571 114.4C79.9439 120.016 72.3669 123.023 65.3672 123.023ZM64.6683 66.2086C53.9206 66.2086 38.0271 75.0242 37.9866 92.493C37.9562 105.554 48.0454 118.98 64.8506 119.549C71.2526 119.752 77.8471 117.295 83.1753 112.044C88.7062 106.59 91.816 99.5617 91.7046 92.757C91.4412 78 79.4071 66.2594 64.8 66.1883C64.7797 66.1883 64.6987 66.2086 64.6683 66.2086Z" fill="#9B9B9D"/>
<path d="M58.8439 62.4305C58.1449 61.4656 50.9832 61.7398 43.2745 68.3922C35.6164 75.0039 34.4717 82.3164 35.8494 82.7023C37.4195 83.1391 39.334 76.0703 45.9487 70.1289C52.0266 64.6953 60.2317 64.35 58.8439 62.4305ZM89.0204 89.0906C86.5791 89.4359 89.1115 96.7687 83.449 104.975C78.5361 112.095 72.9647 114.674 73.613 116.238C74.4842 118.33 83.4085 113.12 87.5414 104.63C91.2793 96.9516 90.8336 88.8367 89.0204 89.0906Z" fill="#FEFFFA"/>
<path d="M25.8404 3.77812C25.2023 4.36718 49.6048 47.9375 49.6048 47.9375C49.6048 47.9375 53.6972 48.4656 62.8342 48.5469C71.9712 48.6281 76.4992 48.0187 76.4992 48.0187C76.4992 48.0187 57.5262 4.21484 56.3917 3.77812C55.8346 3.55468 48.3183 3.47343 40.9743 3.39218C33.6201 3.30078 26.4482 3.20937 25.8404 3.77812Z" fill="#6949FF"/>
<path d="M57.5883 87.6992C58.6418 87.7094 59.5839 86.2773 60.4551 85.4039C62.3088 83.5351 64.2537 82.0523 66.4721 84.0633C71.9219 89.0297 60.9818 94.0672 56.8286 100.953C53.7289 106.092 53.1009 110.043 53.9619 111.099C54.8229 112.155 75.7813 112.105 76.065 111.577C76.3486 111.048 76.6424 104.01 76.1562 103.675C75.6699 103.34 65.368 103.533 65.368 103.533C65.368 103.533 66.229 101.522 69.7643 98.4547C73.644 95.093 76.7538 90.4719 75.9232 85.0078C74.2011 73.714 62.8558 73.2976 57.9429 77.2281C53.1515 81.057 54.1848 87.6586 57.5883 87.6992Z" fill="white"/>
</svg>
